<?xml version="1.0" encoding="utf-8"?>
<!-- Generator: Adobe Illustrator 24.1.2, SVG Export Plug-In . SVG Version: 6.00 Build 0)  -->
<svg version="1.1" id="Ebene_1" xmlns="http://www.w3.org/2000/svg" xmlns:xlink="http://www.w3.org/1999/xlink" x="0px" y="0px"
	 viewBox="0 0 200 200" style="enable-background:new 0 0 200 200;" xml:space="preserve">
<style type="text/css">
	.st0{clip-path:url(#SVGID_2_);fill:#3CA58A;}
	.st1{fill:#FFFFFF;}
	.st2{clip-path:url(#SVGID_4_);fill:#3CA58A;}
	.st3{fill:#1F2154;}
	.st4{fill:#3CA58A;}
	.st5{fill:#1E2054;}
	.st6{fill:#2DB093;}
	.st7{fill:#00BB98;}
</style>
<g>
	<path class="st5" d="M139.9,159.9c16.9,16.1,37.5,28.3,60.1,34.4V0.3c-31.3-3.1-48.7,25.3-67.4,59.8c0,0,0,92.4,0,92.4
		C135,155.1,137.4,157.4,139.9,159.9z"/>
	<path class="st5" d="M110.9,125c5,7.4,10.2,14.4,16,21.1V70.6c-7.2,13.6-14.7,28-23.6,42.7C105.9,117.4,108.3,121.2,110.9,125z"/>
	<path class="st6" d="M132.6,160.8V200l66.4-0.1c-25.3-6.7-48-20.8-66.4-39.3V160.8z"/>
	<path class="st6" d="M150.9,176.5c1.1,0.8,2.2,1.7,3.4,2.5C153.1,178.2,152,177.3,150.9,176.5z"/>
	<path class="st6" d="M142.5,169.8c1.1,1,2.2,1.9,3.4,2.8C144.7,171.7,143.6,170.7,142.5,169.8z"/>
	<path class="st6" d="M181.2,193.8c0.9,0.4,1.7,0.6,2.6,1C182.9,194.5,182,194.2,181.2,193.8z"/>
	<path class="st6" d="M170.1,188.6c0.6,0.3,1.1,0.7,1.7,0.9C171.3,189.3,170.7,188.9,170.1,188.6z"/>
	<path class="st6" d="M137.7,165.5c-1.1-1-2.2-2-3.3-3.1C135.5,163.5,136.6,164.5,137.7,165.5z"/>
	<path class="st6" d="M159.8,182.6c1,0.7,2.1,1.3,3.1,2C161.9,184,160.9,183.3,159.8,182.6z"/>
	<path class="st6" d="M190.8,197.4c1.2,0.4,2.4,0.7,3.6,1.1C193.2,198.2,192,197.8,190.8,197.4z"/>
	<path class="st5" d="M120.1,146.8c-7.2-8.9-13.9-18.4-20.1-28.1C77.4,155.9,44.3,188.8,1.1,200h125.8c0,0,0-45.3,0-45.3
		C124.6,152.2,122.3,149.6,120.1,146.8z"/>
	<path class="st5" d="M105.7,127.5c-0.9-1.3-1.7-2.6-2.6-3.9C104,124.8,104.9,126.2,105.7,127.5z"/>
	<path class="st5" d="M112.9,137.6c-0.8-1-1.5-2.1-2.3-3.2C111.4,135.5,112.1,136.6,112.9,137.6z"/>
	<path class="st5" d="M120.1,146.8c-0.3-0.3-0.5-0.7-0.8-1C119.6,146.1,119.8,146.5,120.1,146.8z"/>
	<path class="st6" d="M4.5,0C3,0,1.6,0.1,0,0.3v194.1c42.6-11,74.7-44.3,96.7-81.1C71,74.2,47.9-0.7,4.5,0z"/>
	<path class="st6" d="M57.1,162.7c-1.3,1.1-2.5,2.3-3.8,3.4C54.6,165,55.8,163.9,57.1,162.7z"/>
	<path class="st6" d="M70.7,149c-1.8,2-3.6,3.9-5.4,5.9C67.1,153,68.9,151,70.7,149z"/>
	<path class="st6" d="M20.7,186.9c-1.4,0.7-2.9,1.3-4.4,1.9C17.8,188.2,19.2,187.6,20.7,186.9z"/>
	<path class="st6" d="M63.7,156.5c-1.4,1.4-2.8,2.8-4.2,4.1C60.9,159.3,62.3,157.9,63.7,156.5z"/>
	<path class="st6" d="M28.8,182.9c-1.4,0.8-2.8,1.5-4.2,2.2C26,184.4,27.4,183.6,28.8,182.9z"/>
	<path class="st6" d="M36.4,178.4c-1.3,0.8-2.7,1.7-4,2.5C33.8,180.1,35.1,179.3,36.4,178.4z"/>
	<path class="st6" d="M89.4,124.7c-0.7,1-1.4,2-2.1,3.1C88,126.7,88.7,125.7,89.4,124.7z"/>
	<path class="st6" d="M43.7,173.6c-1.3,0.9-2.6,1.9-3.9,2.8C41.1,175.4,42.4,174.5,43.7,173.6z"/>
	<path class="st6" d="M12.1,190.5c-1.5,0.6-3,1.1-4.6,1.7C9.1,191.6,10.6,191,12.1,190.5z"/>
	<path class="st6" d="M93.4,118.6c-0.6,0.9-1.2,1.9-1.8,2.8C92.1,120.5,92.8,119.6,93.4,118.6z"/>
	<path class="st6" d="M85.1,130.8c-0.8,1.1-1.6,2.2-2.4,3.2C83.6,133,84.4,131.9,85.1,130.8z"/>
	<path class="st6" d="M96.7,113.3C96.7,113.3,96.7,113.3,96.7,113.3c-0.4,0.6-0.8,1.3-1.2,1.9C95.9,114.6,96.3,114,96.7,113.3z"/>
	<path class="st6" d="M80.6,136.9c-0.9,1.2-1.9,2.4-2.8,3.5C78.8,139.3,79.7,138.1,80.6,136.9z"/>
	<path class="st6" d="M0,194.5c1.1-0.3,2-0.6,3.1-1C2.1,193.8,1,194.1,0,194.5L0,194.5z"/>
	<path class="st6" d="M75.8,143c-1.2,1.5-2.5,3-3.8,4.4C73.3,146,74.6,144.5,75.8,143z"/>
	<path class="st6" d="M50.5,168.3c-1.3,1-2.5,2.1-3.8,3C48,170.4,49.3,169.4,50.5,168.3z"/>
</g>
</svg>
